<svg width="38" height="38" viewBox="0 0 38 38" fill="none" xmlns="http://www.w3.org/2000/svg">
<path d="M37.3199 32.5695L28.2429 23.1915C27.5962 22.5224 26.7821 22.2548 26.4253 22.5893C26.0685 22.935 25.2544 22.6674 24.6077 21.9872L24.4739 21.8533C28.5328 16.512 28.1426 8.86233 23.2584 3.9893C17.9393 -1.32977 9.30837 -1.32977 3.9893 3.9893C-1.32977 9.30837 -1.32977 17.9393 3.9893 23.2695C8.95154 28.2318 16.7796 28.5663 22.1321 24.2731L22.1879 24.3289C22.8346 24.9979 23.08 25.8231 22.7231 26.1688C22.3663 26.5145 22.6116 27.3285 23.2584 28.0087L32.3242 37.3868C32.971 38.0559 34.0526 38.0782 34.7217 37.4314L37.2641 34.967C37.9444 34.3091 37.9667 33.2386 37.3199 32.5695ZM20.2699 20.2699C16.6012 23.9386 10.6465 23.9386 6.97779 20.2699C3.30909 16.6012 3.32024 10.6465 6.97779 6.97779C10.6353 3.30908 16.6012 3.32024 20.2587 6.97779C23.9386 10.6465 23.9386 16.6123 20.2699 20.2699Z" fill="#2ECC71"/>
<path d="M8.68457 12.6537C8.68457 11.6389 8.68457 10.6242 8.68457 9.5983C8.68457 9.37527 8.75148 9.28607 8.98565 9.28607C10.9594 9.28607 12.922 9.26376 14.8846 9.28607C16.3565 9.29722 17.5608 10.2005 18.018 11.5386C18.6759 13.4789 17.4939 15.4638 15.5536 15.8764C15.3752 15.921 15.2972 15.9879 15.2526 16.1774C14.9515 17.5825 13.7918 18.5972 12.3421 18.7756C10.6695 18.9875 9.07486 17.7051 8.75148 16.0994C8.70687 15.8875 8.69572 15.6756 8.69572 15.4526C8.69572 14.5159 8.69572 13.5904 8.69572 12.6537C8.70687 12.6537 8.69572 12.6537 8.68457 12.6537ZM10.491 13.4231C10.491 14.1033 10.4799 14.7836 10.491 15.4638C10.491 16.2443 10.9928 16.8465 11.7177 16.9803C12.6767 17.1587 13.5018 16.4674 13.513 15.4972C13.513 15.1292 13.5241 14.7612 13.513 14.3821C13.5018 14.1702 13.591 14.1033 13.7918 14.1145C14.1821 14.1256 14.5612 14.1145 14.9515 14.1145C15.2972 14.1145 15.6094 13.9918 15.8659 13.7577C16.3342 13.3339 16.5015 12.6871 16.2785 12.1073C16.0554 11.494 15.509 11.1148 14.7842 11.1148C13.4461 11.1037 12.0968 11.1148 10.7475 11.1037C10.5357 11.1037 10.4687 11.1706 10.4799 11.3825C10.5022 12.0627 10.491 12.7429 10.491 13.4231Z" fill="#2ECC71"/>
<path d="M17.1256 18.8202C16.5457 18.8202 16.0439 18.3073 16.0439 17.7386C16.0551 17.1587 16.5457 16.6681 17.1256 16.6569C17.7166 16.6569 18.2184 17.1476 18.2073 17.7497C18.2073 18.3296 17.7055 18.8202 17.1256 18.8202Z" fill="#2ECC71"/>
</svg>
